<svg width="640" height="640" viewBox="0 0 640 640" fill="none" xmlns="http://www.w3.org/2000/svg">
<path d="M60 460V180L320 40V600L60 460Z" fill="#B44CFE"/>
<path d="M60 180L320 320L580 180L320 40L60 180Z" fill="#9601FE"/>
<path d="M60 460L320 320V600L60 460Z" fill="#99CBFE"/>
<path d="M580 180L320 320V600L580 460V180Z" fill="#0C364F"/>
<path d="M462.028 303.84L470.987 298.667C505.193 278.918 526.052 280.25 533.563 302.664C536.006 310.135 537.228 319.723 537.228 331.426V348.667L462.028 392.084V303.84ZM364.023 442.241C364.023 430.747 365.335 419.331 367.959 407.993C370.584 396.551 374.656 385.527 380.176 374.921C392.121 352.142 409.225 334.326 431.486 321.473L441.938 315.439V475.313L434.88 479.388C412.075 492.555 394.429 495.533 381.941 488.323C369.996 481.426 364.023 466.065 364.023 442.241ZM462.028 422.805L529.898 383.62V388.009C529.898 397.727 526.867 407.68 520.803 417.868C513.383 430.094 502.84 440.151 489.176 448.04L462.028 463.714V422.805Z" fill="white" stroke="#0C364F" stroke-width="10"/>
</svg>
