<svg width="640" height="640" viewBox="0 0 640 640" fill="none" xmlns="http://www.w3.org/2000/svg">
<path d="M22.8569 480V160L320 0V640L22.8569 480Z" fill="#B44CFE"/>
<path d="M22.8569 160L320 320L617.143 160L320 0L22.8569 160Z" fill="#9601FE"/>
<path d="M22.8569 480L320 320V640L22.8569 480Z" fill="#99CBFE"/>
<path d="M617.143 160L320 320V640L617.143 480V160Z" fill="#0C364F"/>
<path d="M482.606 296.1L493.356 289.893C534.404 266.194 559.435 267.793 568.448 294.69C571.38 303.655 572.846 315.16 572.846 329.204V349.893L482.606 401.994V296.1ZM365 462.182C365 448.389 366.575 434.69 369.724 421.085C372.873 407.354 377.76 394.125 384.384 381.398C398.718 354.063 419.242 332.683 445.956 317.26L458.498 310.019V501.868L450.028 506.759C422.663 522.558 401.487 526.132 386.501 517.48C372.167 509.204 365 490.771 365 462.182ZM482.606 438.859L564.05 391.837V397.103C564.05 408.765 560.412 420.708 553.137 432.934C544.232 447.605 531.581 459.674 515.183 469.141L482.606 487.95V438.859Z" fill="white" stroke="#0C364F" stroke-width="12"/>
</svg>
